#!OML:ASF E:\acrobat2\Project_11_07_03\Capture day 1\Session 1\Acrobat.ASF
:FULLY-SPECIFIED
:DEGREES
342
root 11.4296 12.9481 18.7971 -100.866 0.756297 -172.085
lowerback 42.6394 -0.578288 -2.52224
upperback 15.5262 1.77215 -4.71516
thorax -2.71603 1.8527 -4.40283
lowerneck -6.20533 -1.30539 -1.47187
upperneck 17.8061 -2.13099 0.759575
head 6.44978 -1.11477 0.324897
rclavicle -1.25234e-014 -3.18055e-015
rhumerus 66.9091 -8.86824 -77.7047
rradius 72.685
rwrist 21.5348
rhand -40.2755 -67.0933
rfingers 7.12502
rthumb -13.2334 96.6533
lclavicle -1.25234e-014 -3.18055e-015
lhumerus 67.9222 12.5476 64.7785
lradius 69.0605
lwrist -9.49198
lhand -47.8576 -24.3279
lfingers 7.12502
lthumb -20.5315 4.60646
rfemur -83.878 6.21874 23.8323
rtibia 77.2461
rfoot -32.6358 -4.21095
rtoes -21.3315
lfemur -84.1714 3.53597 -19.8389
ltibia 79.5616
lfoot -21.1161 -18.48
ltoes 39.2084
343
root 11.4085 13.0276 18.3268 -98.7873 0.384342 -172.678
lowerback 43.2923 -0.598724 -2.67162
upperback 15.7067 1.65785 -4.35088
thorax -2.69985 1.71949 -3.90515
lowerneck -6.27523 -1.21429 -2.07942
upperneck 19.3948 -2.06112 0.990742
head 6.97965 -1.0985 0.501257
rclavicle -1.19271e-015 3.97569e-016
rhumerus 66.7145 -9.36723 -77.7022
rradius 75.5193
rwrist 21.91
rhand -40.3136 -68.1692
rfingers 7.12502
rthumb -13.2701 97.7267
lclavicle -1.19271e-015 3.97569e-016
lhumerus 67.7388 12.7808 65.7835
lradius 72.0403
lwrist -9.9632
lhand -48.3137 -24.8974
lfingers 7.12502
lthumb -20.9698 3.98901
rfemur -82.8212 5.74312 23.4692
rtibia 73.5997
rfoot -31.0687 -5.52178
rtoes -21.5559
lfemur -82.8869 2.71822 -19.3516
ltibia 75.5664
lfoot -19.1902 -18.3054
ltoes 38.7472
344
root 11.3882 13.1009 17.8666 -96.1788 -0.109938 -173.348
lowerback 43.4215 -0.88908 -2.44069
upperback 15.7868 1.29209 -4.15568
thorax -2.67062 1.47794 -3.67747
lowerneck -6.10983 -1.02871 -2.63448
upperneck 20.6674 -1.82493 1.05605
head 7.36611 -1.01349 0.635266
rclavicle -1.6201e-014 3.47873e-015
rhumerus 65.8361 -9.5726 -77.9056
rradius 78.7327
rwrist 22.0427
rhand -40.5283 -69.1512
rfingers 7.12502
rthumb -13.4771 98.6952
lclavicle -1.6201e-014 3.47873e-015
lhumerus 67.4511 13.3821 66.3567
lradius 74.7795
lwrist -10.2902
lhand -48.5229 -25.8423
lfingers 7.12502
lthumb -21.1707 3.02176
rfemur -82.1524 5.25899 22.9455
rtibia 69.3783
rfoot -29.4264 -5.74944
rtoes -17.0129
lfemur -82.2213 1.94806 -18.7482
ltibia 71.3484
lfoot -17.3574 -17.4955
ltoes 38.5164
345
root 11.3737 13.1722 17.3822 -93.8478 -0.472947 -174.12
lowerback 44.067 -1.39861 -2.0049
upperback 15.978 0.783336 -4.29702
thorax -2.66123 1.20505 -3.86821
lowerneck -5.68379 -1.03017 -2.60434
upperneck 19.8035 -1.79402 1.23438
head 7.00944 -0.969115 0.695322
rclavicle -1.26725e-015 2.21396e-014
rhumerus 66.6795 -10.4663 -78.0346
rradius 80.361
rwrist 21.7035
rhand -40.8032 -69.8421
rfingers 7.12502
rthumb -13.742 99.3683
lclavicle -1.26725e-015 2.21396e-014
lhumerus 67.4488 13.9174 66.6065
lradius 77.5202
lwrist -10.4776
lhand -48.9497 -26.9514
lfingers 7.12502
lthumb -21.5807 1.86612
rfemur -80.9169 4.67417 22.8445
rtibia 64.6305
rfoot -26.7838 -8.85708
rtoes -24.7217
lfemur -81.0121 1.17214 -18.4695
ltibia 66.7265
lfoot -15.9933 -15.9341
ltoes 36.6001
346
root 11.3596 13.2267 16.8968 -91.2478 -0.784509 -174.959
lowerback 44.4136 -1.66204 -1.77275
upperback 15.997 0.429121 -4.10145
thorax -2.75319 0.962091 -3.64693
lowerneck -4.45088 -1.13815 -2.19614
upperneck 19.2412 -1.81078 0.221534
head 6.59934 -1.0214 0.31146
rclavicle -2.47456e-014 -8.39244e-015
rhumerus 65.9916 -10.7918 -77.9171
rradius 83.1678
rwrist 21.7179
rhand -41.1149 -70.7279
rfingers 7.12502
rthumb -14.0423 100.234
lclavicle -2.47456e-014 -8.39244e-015
lhumerus 67.0679 14.0662 67.1125
lradius 80.214
lwrist -10.613
lhand -49.5555 -28.2599
lfingers 7.12502
lthumb -22.1624 0.48976
rfemur -79.918 4.28326 21.763
rtibia 60.3316
rfoot -26.016 -7.72182
rtoes -14.3802
lfemur -80.115 0.304492 -18.16
ltibia 62.1349
lfoot -14.8656 -13.909
ltoes 34.4688
347
root 11.3451 13.2636 16.4124 -88.3912 -0.969843 -175.767
lowerback 44.4365 -1.63005 -1.80766
upperback 15.8172 0.259412 -3.6062
thorax -2.96425 0.768 -3.0357
lowerneck -3.41039 -0.897417 -2.71098
upperneck 20.5629 -1.60467 0.605532
head 6.84607 -0.913339 0.54318
rclavicle 1.89637e-014 -8.83349e-015
rhumerus 64.4043 -10.9916 -77.3829
rradius 86.5648
rwrist 21.7162
rhand -41.3384 -71.6836
rfingers 7.12502
rthumb -14.2577 101.174
lclavicle 1.89637e-014 -8.83349e-015
lhumerus 66.2769 13.8823 67.8045
lradius 82.8596
lwrist -10.8348
lhand -50.0274 -29.7131
lfingers 7.12502
lthumb -22.6154 -1.01799
rfemur -79.2214 3.86646 21.0924
rtibia 55.7527
rfoot -23.9189 -9.33672
rtoes -17.1475
lfemur -79.4733 -0.525485 -17.8268
ltibia 57.4505
lfoot -13.619 -11.8972
ltoes 31.9431
348
root 11.3331 13.2868 15.9097 -85.9226 -1.00137 -176.553
lowerback 44.7313 -2.19483 -1.58789
upperback 15.9662 -0.441932 -3.72192
thorax -2.91134 0.38215 -3.0026
lowerneck -2.44588 -0.723789 -3.14928
upperneck 20.5294 -1.27715 0.283804
head 6.66286 -0.796084 0.54336
rclavicle -5.01931e-015 1.65612e-014
rhumerus 64.6579 -11.2638 -77.5248
rradius 88.865
rwrist 21.2838
rhand -41.5339 -72.4014
rfingers 7.12502
rthumb -14.4461 101.879
lclavicle -5.01931e-015 1.65612e-014
lhumerus 66.0036 15.3585 67.271
lradius 85.3416
lwrist -10.2122
lhand -50.5016 -30.8024
lfingers 7.12502
lthumb -23.0705 -2.16345
rfemur -77.9309 3.49667 20.2104
rtibia 51.0157
rfoot -22.1766 -10.6456
rtoes -18.1162
lfemur -78.2111 -1.32481 -17.6373
ltibia 52.4917
lfoot -12.3487 -9.86321
ltoes 27.4984
349
root 11.3183 13.2954 15.4249 -83.0912 -1.11369 -177.488
lowerback 44.8316 -2.28298 -1.51409
upperback 15.7159 -0.726569 -3.16245
thorax -3.21766 0.137524 -2.33304
lowerneck -2.77254 -1.03421 -3.0953
upperneck 22.0237 -1.59806 -0.555129
head 7.20667 -0.995145 0.240302
rclavicle 4.8578e-014 1.82882e-014
rhumerus 63.0358 -10.954 -77.1552
rradius 92.1213
rwrist 21.7398
rhand -41.802 -73.0899
rfingers 7.12502
rthumb -14.7044 102.548
lclavicle 4.8578e-014 1.82882e-014
lhumerus 64.9143 15.4983 67.7952
lradius 88.0867
lwrist -10.5056
lhand -51.0775 -31.7262
lfingers 7.12502
lthumb -23.623 -3.15741
rfemur -77.0596 2.99764 19.3606
rtibia 46.396
rfoot -20.928 -11.8615
rtoes -17.478
lfemur -77.5378 -2.19211 -17.2568
ltibia 47.8365
lfoot -10.5491 -8.89118
ltoes 29.673
350
root 11.3069 13.2922 14.9096 -81.3067 -1.26799 -177.687
lowerback 46.1221 -2.10762 -1.76053
upperback 15.7093 -0.719545 -2.79968
thorax -3.52227 0.0337026 -1.82655
lowerneck -2.17783 -0.773109 -3.85114
upperneck 22.2939 -1.304 0.135931
head 7.1965 -0.832464 0.620126
rclavicle -5.49143e-015 1.94809e-014
rhumerus 62.8797 -11.3894 -76.7459
rradius 94.3708
rwrist 21.396
rhand -42.0069 -73.9596
rfingers 7.12502
rthumb -14.9018 103.404
lclavicle -5.49143e-015 1.94809e-014
lhumerus 64.328 15.8839 68.1958
lradius 90.6734
lwrist -10.649
lhand -51.5351 -32.7263
lfingers 7.12502
lthumb -24.0618 -4.21485
rfemur -74.709 3.26491 18.7474
rtibia 41.4599
rfoot -20.427 -12.3302
rtoes -13.8183
lfemur -75.313 -2.40411 -16.7118
ltibia 42.7796
lfoot -9.23492 -7.8951
ltoes 32.4012
351
root 11.2927 13.268 14.4104 -79.2784 -1.2946 -177.837
lowerback 47.0049 -1.73729 -2.23516
upperback 15.6419 -0.607399 -2.27212
thorax -3.77592 -0.0440741 -1.0688
lowerneck -1.25223 -0.825499 -4.10397
upperneck 21.5609 -1.19616 -0.634828
head 6.79422 -0.84122 0.427248
rclavicle 1.2921e-014 2.68359e-014
rhumerus 62.2009 -11.0656 -76.4932
rradius 96.7831
rwrist 21.6319
rhand -42.575 -74.8631
rfingers 7.12502
rthumb -15.4491 104.266
lclavicle 1.2921e-014 2.68359e-014
lhumerus 63.5654 16.2045 68.817
lradius 93.1163
lwrist -10.8592
lhand -52.0997 -33.9681
lfingers 7.12502
lthumb -24.603 -5.52917
rfemur -72.9247 3.52017 18.001
rtibia 37.0195
rfoot -19.2223 -12.6846
rtoes -13.1052
lfemur -73.5814 -2.72965 -16.2206
ltibia 38.2594
lfoot -8.67686 -7.06365
ltoes 33.1082
352
root 11.2776 13.227 13.9353 -76.9995 -1.29825 -177.876
lowerback 47.0806 -1.55274 -2.48002
upperback 15.8887 -0.568248 -2.03978
thorax -3.50423 -0.13597 -0.709011
lowerneck -1.35176 -1.36162 -4.20085
upperneck 21.6053 -0.798774 -1.23712
head 6.82954 -0.922412 0.246877
rclavicle 2.13694e-015 1.86858e-014
rhumerus 62.4516 -11.277 -76.4629
rradius 98.4666
rwrist 21.221
rhand -43.3967 -75.7201
rfingers 7.12502
rthumb -16.2404 105.06
lclavicle 2.13694e-015 1.86858e-014
lhumerus 63.4734 16.8487 69.2348
lradius 95.1593
lwrist -10.7301
lhand -52.6725 -35.1546
lfingers 7.12502
lthumb -25.152 -6.79158
rfemur -71.8365 3.82603 17.2935
rtibia 33.3289
rfoot -17.2698 -12.1359
rtoes -7.74052
lfemur -72.4864 -3.02617 -15.6481
ltibia 34.4648
lfoot -8.49935 -6.09962
ltoes 32.5775
353
root 11.2643 13.1763 13.4749 -74.7971 -1.44402 -177.876
lowerback 47.0559 -1.33374 -2.67993
upperback 16.2281 -0.440488 -1.72674
thorax -3.10703 -0.195641 -0.321266
lowerneck -1.80857 -1.39597 -4.42849
upperneck 22.21 -0.792367 -1.30851
head 7.11 -0.982462 0.254375
rclavicle -8.24956e-015 3.97569e-015
rhumerus 62.6314 -11.3236 -76.459
rradius 100.284
rwrist 20.975
rhand -43.8113 -76.5663
rfingers 7.12502
rthumb -16.6395 105.873
lclavicle -8.24956e-015 3.97569e-015
lhumerus 63.5184 17.2196 69.9547
lradius 97.0403
lwrist -10.817
lhand -53.0892 -36.5524
lfingers 7.12502
lthumb -25.5512 -8.24598
rfemur -70.9667 4.25418 16.7783
rtibia 30.2918
rfoot -16.9341 -9.92295
rtoes -6.26228
lfemur -71.6245 -3.26813 -14.8121
ltibia 31.2983
lfoot -8.61958 -5.0265
ltoes 30.679
354
root 11.252 13.1152 13.0227 -72.8499 -1.7065 -177.891
lowerback 48.7144 -1.53041 -1.98521
upperback 15.2525 -0.691549 -2.13763
thorax -3.36146 -0.29914 -1.0835
lowerneck -2.10727 -0.784294 -3.70188
upperneck 23.2512 -0.952406 -1.10884
head 7.4912 -0.672926 0.223802
rclavicle -8.28684e-015 1.58531e-014
rhumerus 62.2686 -11.7744 -77.2952
rradius 101.996
rwrist 20.9527
rhand -43.9674 -77.2226
rfingers 7.12502
rthumb -16.7898 106.517
lclavicle -8.28684e-015 1.58531e-014
lhumerus 63.4275 16.9605 69.7002
lradius 98.6196
lwrist -10.9458
lhand -53.4514 -38.1586
lfingers 7.12502
lthumb -25.8981 -9.90244
rfemur -70.0428 4.76689 16.3924
rtibia 27.7977
rfoot -17.0346 -9.02086
rtoes -8.286
lfemur -70.7917 -3.57261 -13.6858
ltibia 28.8912
lfoot -9.34789 -4.48967
ltoes 32.6104
355
root 11.2416 13.045 12.586 -71.0525 -1.97711 -177.899
lowerback 49.3045 -1.63589 -1.5488
upperback 15.2796 -0.765769 -2.38396
thorax -3.4312 -0.376817 -1.52182
lowerneck -1.77588 -0.652785 -3.31479
upperneck 23.6901 -0.627115 -1.87857
head 7.57077 -0.520201 -0.0669439
rclavicle -8.45456e-015 -9.44227e-015
rhumerus 61.8621 -12.4696 -77.8118
rradius 103.598
rwrist 20.6719
rhand -44.322 -78.1174
rfingers 7.12502
rthumb -17.1312 107.382
lclavicle -8.45456e-015 -9.44227e-015
lhumerus 63.4126 17.3091 69.5847
lradius 100.012
lwrist -10.6167
lhand -53.8573 -39.8601
lfingers 7.12502
lthumb -26.2867 -11.6613
rfemur -69.3098 5.24902 16.1569
rtibia 26.0357
rfoot -16.9427 -7.98301
rtoes -5.785
lfemur -70.0657 -3.76513 -12.7249
ltibia 27.2284
lfoot -10.6199 -4.45742
ltoes 35.5055
356
root 11.2316 12.9669 12.1644 -69.5634 -2.02329 -177.848
lowerback 49.9992 -1.35752 -1.83836
upperback 15.369 -0.668152 -2.15946
thorax -3.40788 -0.439627 -1.18533
lowerneck -2.08177 -0.831997 -3.79522
upperneck 23.9491 -0.833682 -1.6346
head 7.71938 -0.624974 0.08048
rclavicle 5.0774e-014 -4.79568e-015
rhumerus 62.0234 -11.9948 -77.947
rradius 104.298
rwrist 21.4089
rhand -44.7396 -79.2583
rfingers 7.12502
rthumb -17.533 108.488
lclavicle 5.0774e-014 -4.79568e-015
lhumerus 63.4765 16.8827 70.36
lradius 101.024
lwrist -11.3494
lhand -54.2089 -41.9093
lfingers 7.12502
lthumb -26.6232 -13.7611
rfemur -68.5983 5.49145 16.0683
rtibia 25.0583
rfoot -16.7695 -8.34543
rtoes -7.92672
lfemur -69.1957 -3.90392 -12.3772
ltibia 26.2049
lfoot -11.5128 -3.66156
ltoes 33.5239
